#!OML:ASF H:\Terrain\Patient Classification 1\Walking\liu\liu.ASF
:FULLY-SPECIFIED
:DEGREES
352
root 9.37086 17.1533 19.7205 6.91095 -4.53383 -6.66788
lowerback -5.4847 2.19638 3.77929
upperback 0.910472 2.53352 3.37433
thorax 4.03276 1.30425 1.60037
lowerneck -18.7703 -4.20313 -13.1169
upperneck 19.53 -5.25696 13.7735
head 10.0414 -1.89828 6.38542
rclavicle 1.07344e-014 2.90226e-014
rhumerus -23.4343 21.0177 -84.0037
rradius 47.3361
rwrist -19.7257
rhand -32.8169 -23.1959
rfingers 7.12502
rthumb -6.03748 -53.0899
lclavicle 1.07344e-014 2.90226e-014
lhumerus -49.1918 9.22835 73.7919
lradius 15.4659
lwrist -14.4296
lhand -9.49469 -24.5895
lfingers 7.12502
lthumb 16.4702 4.73137
rfemur 16.4574 3.08926 30.1883
rtibia -2.54444e-014
rfoot -4.49065 4.02839
rtoes -23.5191
lfemur -35.3321 0.0543381 -11.9825
ltibia 19.3269
lfoot -11.5658 13.0033
ltoes -12.4353
353
root 9.39507 17.1615 19.9046 6.94699 -4.35336 -6.88801
lowerback -5.55271 2.13199 3.97839
upperback 0.794275 2.43193 3.45242
thorax 3.95549 1.25599 1.56041
lowerneck -18.7509 -4.24276 -13.2177
upperneck 19.6746 -5.31874 13.8528
head 10.1042 -1.92704 6.43035
rclavicle 2.6339e-014 2.34566e-014
rhumerus -23.8398 21.0807 -84.2473
rradius 47.2575
rwrist -19.6204
rhand -31.8808 -22.267
rfingers 7.12502
rthumb -5.13359 -52.1848
lclavicle 2.6339e-014 2.34566e-014
lhumerus -49.4343 9.77958 73.29
lradius 15.2657
lwrist -15.4216
lhand -9.78342 -24.7711
lfingers 7.12502
lthumb 16.1922 4.57262
rfemur 16.9424 2.78731 30.1721
rtibia 1.27222e-014
rfoot -3.55943 4.18406
rtoes -23.9648
lfemur -35.2897 0.353956 -12.1
ltibia 19.9913
lfoot -9.34386 12.9333
ltoes -13.0595
354
root 9.42535 17.1856 20.0934 6.91121 -4.19571 -6.90276
lowerback -5.63583 2.07345 4.05686
upperback 0.763188 2.34525 3.42851
thorax 3.97398 1.2148 1.48658
lowerneck -18.9403 -4.24422 -13.1066
upperneck 19.9227 -5.34406 13.8077
head 10.2276 -1.92893 6.40188
rclavicle -2.38542e-015 -7.55382e-015
rhumerus -24.2326 21.0368 -84.4825
rradius 47.3466
rwrist -19.5333
rhand -31.3781 -22.3493
rfingers 7.12502
rthumb -4.6482 -52.2783
lclavicle -2.38542e-015 -7.55382e-015
lhumerus -49.5499 10.0112 73.0794
lradius 15.2344
lwrist -15.9397
lhand -9.75521 -24.7156
lfingers 7.12502
lthumb 16.2194 4.62595
rfemur 17.4441 2.47868 29.9314
rtibia -9.54166e-015
rfoot -2.67516 4.45481
rtoes -25.1414
lfemur -35.225 0.366054 -12.2863
ltibia 20.5574
lfoot -6.97033 13.2175
ltoes -12.2172
355
root 9.45667 17.1975 20.2821 6.81843 -4.27246 -6.57549
lowerback -5.78002 2.03831 3.73495
upperback 0.887537 2.30976 3.33754
thorax 4.17478 1.19323 1.57824
lowerneck -19.4933 -4.25952 -12.6692
upperneck 20.2982 -5.33841 13.2839
head 10.4363 -1.93152 6.14504
rclavicle -2.01766e-014 -2.46493e-014
rhumerus -24.4901 21.0441 -84.6573
rradius 47.4324
rwrist -19.4122
rhand -31.9158 -22.9604
rfingers 7.12502
rthumb -5.16748 -52.8773
lclavicle -2.01766e-014 -2.46493e-014
lhumerus -49.4189 10.2172 73.1111
lradius 15.2095
lwrist -16.0554
lhand -9.83881 -24.8896
lfingers 7.12502
lthumb 16.1389 4.45845
rfemur 18.0004 2.35837 29.3153
rtibia 4.45278e-014
rfoot -1.44419 4.44552
rtoes -25.2342
lfemur -35.0999 0.655952 -12.8869
ltibia 21.0904
lfoot -5.31423 13.1493
ltoes -14.1804
356
root 9.48251 17.2053 20.4664 6.93343 -4.56702 -6.26266
lowerback -6.00365 2.01468 3.30917
upperback 0.854132 2.30125 3.26132
thorax 4.25157 1.18019 1.74396
lowerneck -19.6475 -4.17508 -12.2913
upperneck 20.4207 -5.2347 12.9054
head 10.4705 -1.8912 5.95632
rclavicle 1.8487e-014 2.38542e-014
rhumerus -24.8789 21.3228 -85.0314
rradius 47.2644
rwrist -19.5219
rhand -33.2566 -23.0167
rfingers 7.12502
rthumb -6.46189 -52.8981
lclavicle 1.8487e-014 2.38542e-014
lhumerus -49.4394 10.3633 73.1718
lradius 15.2511
lwrist -15.8979
lhand -9.86797 -25.0926
lfingers 7.12502
lthumb 16.1108 4.25774
rfemur 18.3699 2.48594 28.694
rtibia -2.54444e-014
rfoot 0.0736167 4.0461
rtoes -23.3437
lfemur -35.012 1.39572 -13.5465
ltibia 21.5416
lfoot -3.76359 12.6389
ltoes -15.3416
357
root 9.50868 17.2111 20.6537 6.62626 -4.22089 -5.80396
lowerback -5.8058 1.7882 2.81567
upperback 0.801413 2.05397 3.14332
thorax 4.07171 1.047 1.86359
lowerneck -19.2564 -3.84845 -11.8315
upperneck 20.2093 -4.89757 12.7376
head 10.2523 -1.73016 5.85293
rclavicle -3.762e-014 -3.57812e-014
rhumerus -25.5309 21.3162 -85.5006
rradius 47.0942
rwrist -19.4496
rhand -33.1653 -22.6095
rfingers 7.12502
rthumb -6.37376 -52.4936
lclavicle -3.762e-014 -3.57812e-014
lhumerus -49.4979 10.6262 72.9753
lradius 15.1397
lwrist -16.13
lhand -9.79126 -25.3819
lfingers 7.12502
lthumb 16.1847 3.96241
rfemur 19.2871 1.91536 28.0237
rtibia -3.18055e-014
rfoot 1.12255 3.77246
rtoes -22.7431
lfemur -34.481 1.97199 -14.5177
ltibia 22.1077
lfoot -2.36668 11.6348
ltoes -14.2084
358
root 9.53931 17.2178 20.8465 6.48123 -4.02744 -5.2105
lowerback -5.87372 1.71335 2.27735
upperback 0.760734 1.99872 2.97899
thorax 4.05468 1.0094 1.9903
lowerneck -18.7988 -3.93723 -12.1646
upperneck 20.0184 -5.03118 13.0425
head 10.1353 -1.79889 5.99617
rclavicle 2.19906e-014 2.22639e-014
rhumerus -26.2223 20.7359 -85.757
rradius 47.0013
rwrist -18.9307
rhand -31.881 -21.5855
rfingers 7.12502
rthumb -5.13378 -51.5033
lclavicle 2.19906e-014 2.22639e-014
lhumerus -49.3862 10.4514 73.2533
lradius 15.0703
lwrist -16.0557
lhand -10.0005 -25.7179
lfingers 7.12502
lthumb 15.9832 3.6427
rfemur 20.0064 1.52029 27.139
rtibia -6.04305e-014
rfoot 2.33019 3.68711
rtoes -22.6827
lfemur -34.0297 2.59638 -15.6511
ltibia 22.7739
lfoot -1.72451 10.8265
ltoes -12.9772
359
root 9.56986 17.2133 21.0429 6.36294 -4.08039 -4.64802
lowerback -6.0306 1.75572 1.73847
upperback 0.810631 2.09223 2.86264
thorax 4.17779 1.04491 2.18744
lowerneck -19.0697 -4.14296 -12.5359
upperneck 20.2979 -5.2368 13.1729
head 10.3321 -1.90027 6.09285
rclavicle 1.84124e-014 2.66371e-014
rhumerus -26.6754 20.0586 -85.7914
rradius 46.7893
rwrist -18.3402
rhand -31.3427 -21.3983
rfingers 7.12502
rthumb -4.61406 -51.328
lclavicle 1.84124e-014 2.66371e-014
lhumerus -49.139 10.0357 73.8633
lradius 15.2758
lwrist -15.9486
lhand -9.65008 -25.6009
lfingers 7.12502
lthumb 16.3206 3.73236
rfemur 18.8441 1.31364 26.242
rtibia 3.63932
rfoot 2.39606 4.05708
rtoes -21.6476
lfemur -33.6631 2.92394 -16.5194
ltibia 23.4737
lfoot -1.67875 10.4452
ltoes -10.73
360
root 9.59191 17.2293 21.2219 6.30389 -4.19394 -4.17985
lowerback -5.99026 1.7236 1.11213
upperback 0.671896 2.10376 2.8215
thorax 3.98905 1.03807 2.49133
lowerneck -18.8779 -4.13307 -12.8582
upperneck 20.4437 -5.20993 13.3693
head 10.3588 -1.89856 6.2337
rclavicle 4.87022e-015 7.95139e-016
rhumerus -27.3516 19.8483 -86.0115
rradius 46.4398
rwrist -17.9576
rhand -31.4357 -21.9083
rfingers 7.12502
rthumb -4.70387 -51.8361
lclavicle 4.87022e-015 7.95139e-016
lhumerus -49.1065 9.78559 74.3232
lradius 15.3887
lwrist -15.9469
lhand -9.26272 -25.4235
lfingers 7.12502
lthumb 16.6935 3.87871
rfemur 16.3118 1.11066 25.5137
rtibia 9.5804
rfoot 1.79476 4.59478
rtoes -21.7085
lfemur -33.4669 3.07535 -17.0978
ltibia 24.0142
lfoot -1.26423 10.0085
ltoes -6.19957
361
root 9.6107 17.2456 21.3898 6.32893 -4.24326 -3.59306
lowerback -5.8393 1.64843 0.420935
upperback 0.437842 2.07034 2.6482
thorax 3.64381 1.01223 2.68425
lowerneck -18.386 -4.01123 -12.9534
upperneck 20.3478 -5.11614 13.5977
head 10.2253 -1.85392 6.34482
rclavicle -5.46658e-016 1.59028e-015
rhumerus -28.203 19.8006 -86.4839
rradius 46.1239
rwrist -17.8791
rhand -31.4578 -22.4029
rfingers 7.12502
rthumb -4.72516 -52.3302
lclavicle -5.46658e-016 1.59028e-015
lhumerus -49.0726 9.16729 74.986
lradius 15.5869
lwrist -15.0608
lhand -9.61528 -25.4328
lfingers 7.12502
lthumb 16.3541 3.8977
rfemur 14.4714 0.862135 24.6725
rtibia 13.689
rfoot 2.10989 4.67192
rtoes -23.4882
lfemur -33.3538 3.58491 -18.001
ltibia 24.5188
lfoot -0.693452 8.86151
ltoes -2.05085
362
root 9.6413 17.2536 21.565 6.30424 -4.14976 -2.88755
lowerback -5.75349 1.5683 -0.175217
upperback 0.282218 2.01944 2.38027
thorax 3.42529 0.981095 2.72992
lowerneck -18.1995 -3.9966 -12.7876
upperneck 20.3883 -5.14182 13.4796
head 10.1998 -1.87163 6.26769
rclavicle 2.8948e-014 5.96354e-015
rhumerus -29.0155 19.5077 -86.9467
rradius 45.8827
rwrist -17.8295
rhand -31.2089 -23.2875
rfingers 7.12502
rthumb -4.48484 -53.22
lclavicle 2.8948e-014 5.96354e-015
lhumerus -48.9696 8.78898 75.3843
lradius 15.9027
lwrist -14.7289
lhand -9.73909 -25.3876
lfingers 7.12502
lthumb 16.2349 3.95268
rfemur 12.9755 0.30967 23.5566
rtibia 17.3048
rfoot 2.77985 4.85617
rtoes -24.2953
lfemur -32.9371 4.02093 -19.1803
ltibia 24.9333
lfoot -0.835979 7.59757
ltoes -0.886141
363
root 9.68095 17.2582 21.7432 6.32193 -3.95301 -2.50873
lowerback -5.91323 1.488 -0.414096
upperback 0.237281 1.93021 2.32021
thorax 3.46696 0.932798 2.79901
lowerneck -18.602 -4.12849 -12.718
upperneck 20.8489 -5.26229 13.1512
head 10.4485 -1.9454 6.13448
rclavicle 1.69961e-014 7.55382e-015
rhumerus -29.5736 19.1751 -87.0837
rradius 45.4467
rwrist -17.5231
rhand -31.2954 -23.3278
rfingers 7.12502
rthumb -4.5684 -53.2585
lclavicle 1.69961e-014 7.55382e-015
lhumerus -48.6088 8.47372 76.0591
lradius 16.0918
lwrist -14.4902
lhand -9.45881 -25.2121
lfingers 7.12502
lthumb 16.5047 4.10587
rfemur 11.6587 -0.304731 22.7313
rtibia 20.7334
rfoot 4.03539 4.77783
rtoes -21.8688
lfemur -32.4404 4.12131 -19.9501
ltibia 25.2513
lfoot -1.21308 6.77661
ltoes -0.978413
364
root 9.71677 17.2699 21.924 6.34495 -3.82142 -2.30967
lowerback -6.12406 1.46893 -0.4391
upperback 0.380988 1.90529 2.24446
thorax 3.73734 0.916652 2.74315
lowerneck -20.5432 -4.61904 -12.5614
upperneck 22.2992 -5.79842 12.7164
head 11.4219 -2.16925 5.9272
rclavicle -8.4235e-015 7.15625e-015
rhumerus -29.7186 18.847 -87.1719
rradius 44.6962
rwrist -17.2649
rhand -32.3959 -24.5015
rfingers 7.12502
rthumb -5.63102 -54.4067
lclavicle -8.4235e-015 7.15625e-015
lhumerus -47.702 7.53843 77.2307
lradius 16.2955
lwrist -13.2323
lhand -9.35707 -25.0827
lfingers 7.12502
lthumb 16.6027 4.22709
rfemur 10.267 -1.02707 22.0998
rtibia 24.0273
rfoot 5.8546 4.36711
rtoes -19.7168
lfemur -31.9513 4.23324 -20.4676
ltibia 25.4971
lfoot -1.38142 6.26446
ltoes -0.188129
365
root 9.75112 17.2993 22.097 6.25298 -3.79661 -1.81349
lowerback -6.09829 1.439 -0.723677
upperback 0.557326 1.8955 1.95291
thorax 3.90658 0.905761 2.60324
lowerneck -19.4163 -4.15388 -12.8594
upperneck 21.0173 -5.27763 13.5614
head 10.6858 -1.89216 6.32687
rclavicle -1.30204e-014 7.55382e-015
rhumerus -29.9137 18.3799 -87.5119
rradius 44.042
rwrist -17.1421
rhand -33.0791 -27.0416
rfingers 7.12502
rthumb -6.29056 -56.9282
lclavicle -1.30204e-014 7.55382e-015
lhumerus -46.7728 6.8554 77.8649
lradius 16.5924
lwrist -12.4198
lhand -9.22804 -25.0701
lfingers 7.12502
lthumb 16.7269 4.22925
rfemur 8.51707 -1.83108 21.2252
rtibia 27.4576
rfoot 7.36524 4.43573
rtoes -23.3185
lfemur -31.3921 4.21652 -21.1904
ltibia 25.6495
lfoot -1.4507 6.01728
ltoes 1.09402
